<svg width="14" height="14" viewBox="0 0 14 14" fill="none" xmlns="http://www.w3.org/2000/svg">
<path d="M6.02996 5.0699C6.02996 3.75149 5.56116 1.99318 4.30119 0.733536C5.268 0.411156 6.20559 0.176758 6.79159 0.176758C8.13954 0.176758 9.63391 0.850735 9.63391 2.54995C9.63391 3.60474 9.01837 4.6011 8.66677 5.56791C9.95596 5.27508 11.6548 4.01511 12.3879 2.54995C13.2375 3.69273 13.882 4.74752 13.882 5.83152C13.882 7.32556 12.9736 8.26348 11.4792 8.26348C10.8348 8.26348 10.1608 8.14629 9.51638 8.14629H9.25243C9.77999 8.82026 10.3368 9.52346 11.0104 10.0507C11.4792 10.4023 11.9776 10.6954 13.0025 10.6954H13.1492C12.3856 12.1018 11.5669 13.479 10.0725 13.479C9.34008 13.479 8.43171 13.0686 7.99246 12.4239C7.5821 11.8087 7.40647 10.7247 7.2305 9.99225C7.17207 9.78707 7.1133 9.58189 7.02532 9.40626C5.82412 10.9298 5.6777 11.9554 5.6777 13.7131C3.62655 13.7131 1.92601 12.805 1.92601 10.9883C1.92601 9.20108 3.53757 8.70306 4.73878 7.88267C3.92038 7.58951 3.09999 7.41454 2.22083 7.41454C1.60562 7.41454 1.01962 7.50152 0.0820312 7.91255C0.0820312 6.12469 0.668026 3.45833 2.71917 3.45833C4.35963 3.45833 4.85797 4.74752 6.00074 5.53869C6.00074 5.39228 6.02996 5.21631 6.02996 5.0699Z" fill="#FF4E00"/>
</svg>
